<svg version="1.1" id="Calque_1" stroke-miterlimit="10" stroke-width="2" xmlns="http://www.w3.org/2000/svg" stroke="#D6D6D6" xmlns:xlink="http://www.w3.org/1999/xlink" x="0px" y="0px"
	 viewBox="0 0 214.2 126.6" style="enable-background:new 0 0 214.2 126.6;" xml:space="preserve">
<title>pink waves</title>
<line class="st0" x1="54.4" y1="126.6" x2="181.2" y2="-0.2"/>
<line class="st0" x1="71.6" y1="126.6" x2="198.4" y2="-0.2"/>
<line class="st0" x1="106" y1="126.6" x2="232.8" y2="-0.2"/>
<line class="st0" x1="123.3" y1="126.6" x2="250" y2="-0.2"/>
<line class="st0" x1="88.8" y1="126.6" x2="215.6" y2="-0.2"/>
<line class="st0" x1="140.5" y1="126.7" x2="267.3" y2="-0.1"/>
<line class="st0" x1="157.7" y1="126.7" x2="284.5" y2="-0.1"/>
<line class="st0" x1="192.1" y1="126.7" x2="318.9" y2="-0.1"/>
<line class="st0" x1="209.4" y1="126.7" x2="336.1" y2="-0.1"/>
<line class="st0" x1="174.9" y1="126.7" x2="301.7" y2="-0.1"/>
<line class="st0" x1="-117.8" y1="126.7" x2="9" y2="-0.1"/>
<line class="st0" x1="-100.6" y1="126.7" x2="26.2" y2="-0.1"/>
<line class="st0" x1="-66.2" y1="126.7" x2="60.6" y2="-0.1"/>
<line class="st0" x1="-48.9" y1="126.7" x2="77.8" y2="-0.1"/>
<line class="st0" x1="-83.4" y1="126.7" x2="43.4" y2="-0.1"/>
<line class="st0" x1="-31.7" y1="126.8" x2="95.1" y2="0"/>
<line class="st0" x1="-14.5" y1="126.8" x2="112.3" y2="0"/>
<line class="st0" x1="19.9" y1="126.8" x2="146.7" y2="0"/>
<line class="st0" x1="37.2" y1="126.8" x2="163.9" y2="0"/>
<line class="st0" x1="2.7" y1="126.8" x2="129.5" y2="0"/>
</svg>
